<?xml version="1.0" encoding="UTF-8"?>
<svg id="Ebene_2" data-name="Ebene 2" xmlns="http://www.w3.org/2000/svg" viewBox="0 0 563.39 476.41">
  <defs>
    <style>
      .cls-1 {
        stroke: #aaa496;
        stroke-miterlimit: 10;
        stroke-width: .1px;
      }

      .cls-1, .cls-2 {
        fill: #fff;
      }

      .cls-3 {
        opacity: .23;
      }

      .cls-2 {
        stroke-width: 0px;
      }
    </style>
  </defs>
  <g id="Ebene_2-2" data-name="Ebene 2">
    <g>
      <g id="Ebene_1-2" data-name="Ebene 1">
        <g id="_Radiale_Wiederholung_" data-name=" Radiale Wiederholung ">
          <path class="cls-2" d="m513.53,234.26l-60.15-63.22,2.16-87.23c.2-7.61-5.82-13.94-13.43-14.14,0,0-.01,0-.02,0l-87.24-2.17-60.17-63.21c-5.25-5.52-13.99-5.74-19.51-.49h0s-63.22,60.16-63.22,60.16l-87.23-2.16c-7.61-.2-13.94,5.82-14.14,13.43,0,0,0,.01,0,.02l-2.17,87.23-63.21,60.16c-5.52,5.25-5.74,13.99-.49,19.51h0l60.18,63.25-2.21,87.2c-.19,7.62,5.83,13.95,13.45,14.14,0,0,0,0,0,0l87.23,2.17,60.15,63.21c5.26,5.52,13.99,5.74,19.52.49l63.22-60.16,87.23,2.16c7.61.22,13.96-5.77,14.19-13.38,0-.02,0-.05,0-.07l2.17-87.23,63.21-60.16c5.52-5.26,5.73-13.99.47-19.51Zm-19.24,17.45l-52.88,50.33-5.84,5.56-.2,8.06-1.81,73c-.16,6.37-5.46,11.41-11.83,11.25l-73-1.81-8-.2h0l-5.84,5.55-52.89,50.32c-4.59,4.4-11.88,4.25-16.29-.34-.01-.01-.02-.02-.03-.03l-50.33-52.88-5.56-5.84-8.11-.28-73-1.81c-6.37-.16-11.41-5.45-11.25-11.82h0s1.81-73.01,1.81-73.01l.2-8.05h0l-5.55-5.84-50.32-52.89c-4.4-4.61-4.23-11.9.38-16.3,0,0,.01-.01.02-.02l52.89-50.26,5.84-5.56.2-8.06,1.81-73c.15-6.37,5.44-11.41,11.81-11.26,0,0,.01,0,.02,0l73,1.81,3.41.08,4.64.12h0l5.84-5.55,52.89-50.32c4.61-4.39,11.91-4.22,16.3.39,0,0,.01.01.02.02l50.33,52.88,2.35,2.48,3.21,3.36,8.06.2,73,1.81c6.37.16,11.41,5.46,11.26,11.83l-1.81,73-.2,8.05h0l5.55,5.84,50.29,52.88c4.4,4.61,4.23,11.91-.38,16.3,0,0,0,0,0,0Z"/>
        </g>
      </g>
      <g id="Ebene_2-3" data-name="Ebene 2">
        <path class="cls-2" d="m352.56,269.95c0,17.73,9.61,14.38,9.61,27.11v56.92h-9.94v-59.85c0-8.81-5.75-16-12.86-16s-12.86,7.14-12.86,16v50.56c-4.73,3.62-9.82,6.73-15.2,9.29v-60.41c0-22-14.41-39.91-32.18-39.91s-32.18,17.87-32.18,39.91v60.41c-5.37-2.56-10.47-5.67-15.19-9.29v-50.56c0-8.81-5.77-16-12.87-16s-12.85,7.14-12.85,16v59.85h-9.94v-56.92c0-12.73,9.6-9.38,9.6-27.11,0-14.95-22.07-8.18-22.07-36.19,0-106.7,95.5-84.87,95.5-127.6,0,42.73,95.51,20.9,95.51,127.6.04,28.01-22.08,21.24-22.08,36.19Z"/>
        <path class="cls-2" d="m317.49,195.72c-1.74,20.64-19.89,35.95-40.52,34.21-20.64-1.74-35.95-19.89-34.21-40.52,1.28-15.18,11.62-28.07,26.15-32.63-13.04,11.58-14.23,31.54-2.65,44.58s31.54,14.23,44.58,2.65c2.67-2.37,4.91-5.17,6.64-8.29Z"/>
        <polygon class="cls-2" points="298.39 187.01 289.9 185.4 283.76 191.48 282.67 182.9 274.99 178.94 282.81 175.25 284.2 166.72 290.12 173.02 298.67 171.71 294.51 179.29 298.39 187.01"/>
      </g>
      <path class="cls-2" d="m268.96,455.67c-2.68,1.04-5.21,2.42-7.54,4.1-3.74-2.92-9.74-6.08-26.74-8.17-39.56-4.86-234.68,11.62-234.68,11.62l14-20.18s6.36,3.81,12.13,4.91c13.13,2.52,33-1.65,38.66-2.65s48.82-10.29,57.08-11.62,36-5.3,58.2-3c16,1.69,31.91,4,44.31,7.28s44.58,17.71,44.58,17.71Z"/>
      <path class="cls-1" d="m273.3,454.24c-1.48.38-2.93.86-4.34,1.43,0,0-32.18-14.37-44.57-17.69s-28.27-5.58-44.31-7.28c-22.16-2.32-49.95,1.66-58.2,3s-51.44,10.63-57.08,11.62-25.53,5.17-38.66,2.65c-5.77-1.1-12.13-4.91-12.13-4.91l66.07-94.85,6.12-.44,3-6.3,8.25-.68-71,96.41c10.19,1.56,20.48,2.38,30.79,2.47,15.77,0,32.29-5.63,54.81-12.6s37.81-9.19,66.34-7.53,52.68,8.64,62.83,14.27c8.56,4.73,31.36,19.95,32.08,20.43Z"/>
      <path class="cls-1" d="m281.42,453.21c-2.74-.03-5.46.3-8.11,1h0c-.72-.48-23.52-15.7-32-20.45-10.15-5.63-34.3-12.61-62.83-14.27s-43.81.56-66.34,7.53-39,12.6-54.81,12.6c-10.31-.09-20.6-.91-30.79-2.47l71-96.41,3-6.3,7.15-.33-65,92.91s-1.51,2.66,13.89,2.48,22.52-7.79,48.81-14.09,53.7-8.54,81.09-5.31,56,11.94,69.1,18.58c11.9,6.06,23.76,21.72,25.84,24.53Z"/>
      <path class="cls-1" d="m281.68,453.22h-.3c-2.08-2.83-13.94-18.47-25.87-24.5-13.15-6.64-41.68-15.36-69.1-18.58s-54.81-1-81.09,5.31-33.39,13.95-48.77,14.08-13.87-2.48-13.87-2.48l65-92.91,3.37-6s9.39,1,18,1.64,21.77-1,29.65-2,21.38-7.38,41.98-6.38,36.8,3.77,52.57,12.72c8.95,4.99,17.5,10.68,25.57,17,0,0,3.08,2.35,3.08,2.68l-.22,99.42Z"/>
      <path class="cls-2" d="m294.4,455.67c2.68,1.04,5.21,2.42,7.54,4.1,3.77-2.92,9.77-6.08,26.77-8.17,39.56-4.86,234.68,11.62,234.68,11.62l-14-20.18s-6.36,3.81-12.13,4.91c-13.13,2.52-33-1.65-38.66-2.65s-48.82-10.29-57.08-11.62-36-5.3-58.2-3c-16,1.69-31.91,4-44.31,7.28s-44.61,17.71-44.61,17.71Z"/>
      <path class="cls-1" d="m290.06,454.24c1.48.38,2.93.86,4.34,1.43,0,0,32.18-14.37,44.57-17.69s28.27-5.59,44.31-7.28c22.16-2.32,49.95,1.66,58.2,3s51.44,10.63,57.08,11.62,25.53,5.17,38.66,2.65c5.77-1.1,12.13-4.91,12.13-4.91l-66.07-94.87-6.12-.44-3-6.3-8.25-.68,71,96.41c-10.19,1.56-20.48,2.38-30.79,2.47-15.77,0-32.29-5.63-54.81-12.6s-37.81-9.19-66.34-7.53-52.68,8.64-62.83,14.27c-8.56,4.75-31.36,19.97-32.08,20.45Z"/>
      <path class="cls-1" d="m281.94,453.21c2.74-.03,5.46.3,8.11,1h0c.72-.48,23.52-15.7,32-20.45,10.15-5.63,34.3-12.61,62.83-14.27s43.81.56,66.34,7.53,39,12.6,54.81,12.6c10.31-.09,20.6-.91,30.79-2.47l-71-96.41-3-6.3-7.15-.33,65,92.91s1.51,2.66-13.89,2.48-22.52-7.79-48.81-14.09-53.7-8.54-81.09-5.31-56,11.94-69.1,18.58c-11.9,6.06-23.76,21.72-25.84,24.53Z"/>
      <path class="cls-1" d="m281.68,453.22h.3c2.08-2.83,13.94-18.47,25.87-24.5,13.15-6.64,41.68-15.36,69.1-18.58s54.81-1,81.09,5.31,33.43,13.93,48.81,14.09,13.83-2.49,13.83-2.49l-65-92.91-3.37-6s-9.39,1-18,1.64-21.77-1-29.65-2-21.38-7.38-41.98-6.38-36.8,3.77-52.57,12.72c-9.26,5.23-18.05,11.25-26.27,18-.66.54-1.28,1.12-1.86,1.74l-.3,99.36Z"/>
      <g id="_Radiale_Wiederholung_2" data-name=" Radiale Wiederholung 2" class="cls-3">
        <path class="cls-2" d="m483.95,234.76l-52.57-55.24,1.9-76.22c.17-6.66-5.09-12.19-11.75-12.36,0,0,0,0,0,0l-76.22-1.89-52.56-55.24c-4.6-4.82-12.23-5-17.06-.41l-55.23,52.57-76.22-1.9c-6.66-.17-12.19,5.09-12.36,11.75l-1.89,76.23-55.24,52.55c-4.82,4.59-5.01,12.22-.42,17.05l52.56,55.24-1.89,76.22c-.17,6.65,5.08,12.19,11.73,12.36,0,0,.01,0,.02,0l76.23,1.93,52.56,55.24c4.59,4.79,12.18,4.97,17,.42l55.24-52.56,76.27,1.9c6.66.17,12.19-5.09,12.36-11.75l1.89-76.25,55.24-52.56c4.83-4.59,5.03-12.23.44-17.06,0,0-.01-.01-.02-.02Zm-16.81,15.25l-46.21,44-5.1,4.86-.18,7-1.58,63.78c-.14,5.57-4.77,9.97-10.34,9.83l-63.78-1.58-7-.17h0l-5.1,4.85-46.22,44c-4.02,3.84-10.4,3.7-14.24-.33,0,0-.02-.02-.02-.02l-44-46.21-4.85-5.1-7-.18-63.84-1.6c-5.57-.14-9.97-4.77-9.83-10.34l1.58-63.77.17-7h0l-4.85-5.1-44-46.21c-3.84-4.03-3.69-10.42.35-14.27,0,0,0,0,0,0l46.21-44,5.1-4.86.18-7,1.58-63.78c.14-5.57,4.77-9.97,10.34-9.83l63.77,1.58,3,.07,4.05.1h0l5.1-4.85,46.21-44c4.02-3.84,10.4-3.7,14.24.33,0,0,.02.02.02.02l44,46.21,2.06,2.17,2.8,2.93,7,.18,63.78,1.58c5.57.14,9.97,4.77,9.83,10.34l-1.53,63.76-.17,7h0l4.85,5.1,44,46.21c3.84,4.03,3.69,10.42-.34,14.27-.01.01-.02.02-.04.03Z"/>
      </g>
    </g>
  </g>
</svg>